<svg xmlns="http://www.w3.org/2000/svg" width="1200" height="800" viewBox="0 0 1200 800" role="img" aria-labelledby="title desc">
  <title id="title">Product image pending</title>
  <desc id="desc">Neutral placeholder for telescope product cards.</desc>
  <defs>
    <linearGradient id="bg" x1="0" y1="0" x2="1" y2="1">
      <stop offset="0%" stop-color="#0f1726"/>
      <stop offset="100%" stop-color="#1d2b3f"/>
    </linearGradient>
  </defs>
  <rect width="1200" height="800" fill="url(#bg)"/>
  <g fill="#dce4f2">
    <path d="M262 465c0-20 13-39 32-45l293-96a37 37 0 0 1 12-2h46c8 0 15 4 19 11l23 38 64 11-146 58-38 58-178 61-127-42v-52z"/>
    <path d="M733 286a95 95 0 1 1 0 190 95 95 0 0 1 0-190zm0 39a56 56 0 1 0 0 112 56 56 0 0 0 0-112z"/>
    <path d="M299 478c32 33 90 56 162 56 124 0 241-64 298-153l36 10c-72 116-219 195-382 195-90 0-164-25-214-63l100-45z"/>
    <circle cx="746" cy="381" r="19"/>
  </g>
  <text x="600" y="702" fill="#c8d2e5" font-family="Arial, Helvetica, sans-serif" font-size="42" text-anchor="middle" letter-spacing="2">IMAGE UPDATING</text>
</svg>
